<?xml version="1.0" encoding="utf-8"?>
<!-- Generator: Adobe Illustrator 21.1.0, SVG Export Plug-In . SVG Version: 6.00 Build 0)  -->
<!DOCTYPE svg PUBLIC "-//W3C//DTD SVG 1.1//EN" "http://www.w3.org/Graphics/SVG/1.1/DTD/svg11.dtd">
<svg version="1.1" id="Layer_2" xmlns="http://www.w3.org/2000/svg" xmlns:xlink="http://www.w3.org/1999/xlink" x="0px" y="0px"
	 viewBox="0 0 200 200" style="enable-background:new 0 0 200 200;" xml:space="preserve">
<style type="text/css">
	.st0{fill:#231F20;}
	.st1{fill:#FFFFFF;}
	.st2{fill:#00ADBB;}
</style>
<title>HR-3steps_02</title>
<g id="_2">
	<circle class="st0" cx="100" cy="100" r="97"/>
	<circle class="st1" cx="100" cy="100" r="77.6"/>
	<circle class="st0" cx="100" cy="100" r="66.9"/>
	<path class="st2" d="M122.1,107.8l-0.5,17.9H82.2c-0.1-4.2,0.3-8.4,1.3-12.5c0.9-3.1,2.4-6,4.3-8.6c2.5-3.3,5.3-6.4,8.3-9.1
		c3.3-2.9,6.4-6.1,9.3-9.5c1.5-2,2.3-4.4,2.2-6.8c0.1-1.7-0.5-3.4-1.7-4.7c-1.1-1.2-2.6-1.9-4.2-1.8c-2.2-0.1-4.3,1-5.4,3
		c-1.2,2-1.8,5.3-2,9.9L83,85.1c0-5.9,0.9-10.4,2.6-13.4c1.6-2.9,4.2-5.2,7.2-6.5c3.1-1.4,6.5-2,9.9-2c5.9,0,10.5,1.6,13.8,4.9
		c3.3,3.2,5.1,7.6,5,12.1c0,2.5-0.5,4.9-1.5,7.2c-0.9,2.1-2.2,3.9-3.9,5.5c-2.6,2.3-5.3,4.5-8.2,6.4c-5.9,4.2-9.6,7.5-11.1,10
		c-1.3,2-2.2,4.2-2.6,6.5h18v-8L122.1,107.8z"/>
</g>
</svg>
