<?xml version="1.0" encoding="utf-8"?>
<!-- Generator: Adobe Illustrator 21.1.0, SVG Export Plug-In . SVG Version: 6.00 Build 0)  -->
<!DOCTYPE svg PUBLIC "-//W3C//DTD SVG 1.1//EN" "http://www.w3.org/Graphics/SVG/1.1/DTD/svg11.dtd">
<svg version="1.1" id="Layer_2" xmlns="http://www.w3.org/2000/svg" xmlns:xlink="http://www.w3.org/1999/xlink" x="0px" y="0px"
	 viewBox="0 0 240 230" style="enable-background:new 0 0 240 230;" xml:space="preserve">
<style type="text/css">
	.st0{fill:#FFFFFF;}
</style>
<title>HR-3steps_01</title>
<g id="Left_People">
	<path class="st0" d="M72.7,46.3c-24.6,0-44.5,21.6-44.5,48.3S48.2,143,72.7,143s44.5-21.6,44.5-48.3S97.3,46.3,72.7,46.3z
		 M72.7,141.9c-17.9,0-32.5-15.8-32.5-35.3c0-13.2,6.7-24.7,16.6-30.8c3.4,6,7.9,11.4,13.3,15.8c12.3,10.3,26.4,14.5,34.9,11.1
		c0.1,1.3,0.2,2.6,0.2,3.9C105.2,126.1,90.7,141.9,72.7,141.9L72.7,141.9z"/>
	<path class="st0" d="M195.2,86.2c0-0.4,0-0.8,0-1.2c0-19-6.3-44.3-34.3-44.3c-28.3,0-34.3,25.4-34.3,44.3c0,0.3,0,0.6,0,0.9
		c-2.3,0.8-4,3.8-4,7.4c0,4.2,2.4,7.7,5.3,7.7c0.4,0,0.8-0.1,1.2-0.2c5.1,17.5,17.4,36.6,31.8,36.6s26.5-19,31.7-36.4
		c0.2,0,0.4,0.1,0.6,0.1c2.9,0,5.3-3.4,5.3-7.7C198.6,90.1,197.2,87.3,195.2,86.2z"/>
	<path class="st0" d="M160.7,140.4l8,0.1C166.1,140.4,163.4,140.4,160.7,140.4z"/>
	<path class="st0" d="M187.4,142.2l-17.5,36.9l-2.8-22l4.3-4.2h-20l3.5,4l-3.2,22.3l-17.3-36.8c-39.5,6.8-52.2,29.6-52.2,56.9h156.5
		C238.7,171.9,229,148.7,187.4,142.2z"/>
	<path class="st0" d="M1.4,196.4c0,0-4.2-47.1,53.2-49.1l-10.4,11l7.6,4.1L44,178.1l24.8,18.2H1.4z"/>
</g>
</svg>
