<?xml version="1.0" encoding="utf-8"?>
<!-- Generator: Adobe Illustrator 21.1.0, SVG Export Plug-In . SVG Version: 6.00 Build 0)  -->
<!DOCTYPE svg PUBLIC "-//W3C//DTD SVG 1.1//EN" "http://www.w3.org/Graphics/SVG/1.1/DTD/svg11.dtd">
<svg version="1.1" id="Layer_2" xmlns="http://www.w3.org/2000/svg" xmlns:xlink="http://www.w3.org/1999/xlink" x="0px" y="0px"
	 viewBox="0 0 200 200" style="enable-background:new 0 0 200 200;" xml:space="preserve">
<style type="text/css">
	.st0{fill:#231F20;}
	.st1{fill:#FFFFFF;}
	.st2{fill:#00ADBB;}
</style>
<title>HR-3steps_02</title>
<g id="_3">
	<circle class="st0" cx="100" cy="100" r="97"/>
	<circle class="st1" cx="100" cy="100" r="77.6"/>
	<circle class="st0" cx="100" cy="100" r="66.9"/>
	<path class="st2" d="M80.5,106.9l11.9-1c0.1,7.2,2.9,10.8,8.1,10.8c2.2,0.1,4.4-0.9,5.8-2.6c3-3.9,3-9.3,0-13.2
		c-1.5-1.8-3.7-2.6-6.6-2.6c-0.7,0-1.6,0-2.7,0.1V88c3.5,0,6.1-0.8,7.6-2.4c1.6-1.5,2.4-3.6,2.4-5.8c0.1-1.8-0.6-3.6-1.8-4.9
		c-1.2-1.3-3-2-4.8-1.9c-4.4,0-6.6,2.7-6.6,8.1l-11.5-0.9c0.2-5.6,2.1-9.8,5.6-12.8c3.5-2.9,7.9-4.4,13.3-4.4c6,0,10.7,1.4,14.1,4.3
		c3.3,2.9,5,6.8,5,11.9c0,6.5-3.1,11.2-9.2,14c7.6,2.5,11.4,7.4,11.4,14.7c0,5.8-2,10.3-5.9,13.6c-3.9,3.3-8.9,4.9-14.9,4.9
		C88.6,126.5,81.5,119.9,80.5,106.9z"/>
</g>
</svg>
