<?xml version="1.0" encoding="utf-8"?>
<!-- Generator: Adobe Illustrator 21.1.0, SVG Export Plug-In . SVG Version: 6.00 Build 0)  -->
<!DOCTYPE svg PUBLIC "-//W3C//DTD SVG 1.1//EN" "http://www.w3.org/Graphics/SVG/1.1/DTD/svg11.dtd">
<svg version="1.1" id="Layer_2" xmlns="http://www.w3.org/2000/svg" xmlns:xlink="http://www.w3.org/1999/xlink" x="0px" y="0px"
	 viewBox="0 0 240 230" style="enable-background:new 0 0 240 230;" xml:space="preserve">
<style type="text/css">
	.st0{fill:#FFFFFF;}
	.st1{fill:none;}
	.st2{fill:#FEFEFF;}
</style>
<title>HR-3steps_01</title>
<path class="st0" d="M118.8,101.2c-14.4,0-26.1,11.7-26.1,26.1c0,14.4,11.7,26.1,26.1,26.1c14.4,0,26.1-11.7,26.1-26.1l0,0
	C144.8,112.9,133.2,101.2,118.8,101.2z M118.8,139.6c-6.8,0-12.2-5.5-12.2-12.2s5.5-12.2,12.3-12.2s12.2,5.5,12.2,12.2c0,0,0,0,0,0
	C131,134.1,125.5,139.6,118.8,139.6L118.8,139.6z"/>
<path class="st1" d="M140.6,112.9l-0.6,0.6l0.2-0.4l-0.4,0.2l0.6-0.6c1.3-2.5,5.2-10.8,5.8-19.6c-18.9-15.1-46.4-12-61.5,6.9
	s-12,46.4,6.9,61.5s46.4,12,61.5-6.9c10.4-13,12.5-30.7,5.5-45.7C152.4,109.2,146.3,110.6,140.6,112.9z"/>
<path class="st2" d="M186.9,86.7l20-18.4c0,0-8.6-6.7-14.8-3c4.2-5.8-1.7-15-1.7-15l-20,18.4l0.1,13c0,0-2.1,2.3-4.7,5
	c-22.1-25.9-61.1-29.1-87-6.9s-29.1,61.1-6.9,87s61.1,29.1,87,6.9c24.8-21.1,28.9-57.9,9.3-84c3-2.4,5.6-4.3,5.6-4.3L186.9,86.7z
	 M118.8,171.1c-24.2,0-43.8-19.6-43.8-43.8c0-24.2,19.6-43.8,43.8-43.8c10,0,19.6,3.4,27.4,9.6c-0.5,8.8-4.4,17.1-5.8,19.6l-0.6,0.6
	l0.4-0.2l-0.2,0.4l0.6-0.6c5.7-2.3,11.8-3.7,17.9-4c10.2,22,0.6,48-21.4,58.2C131.4,169.8,125.1,171.2,118.8,171.1L118.8,171.1z"/>
</svg>
