<?xml version="1.0" encoding="utf-8"?>
<!-- Generator: Adobe Illustrator 21.1.0, SVG Export Plug-In . SVG Version: 6.00 Build 0)  -->
<!DOCTYPE svg PUBLIC "-//W3C//DTD SVG 1.1//EN" "http://www.w3.org/Graphics/SVG/1.1/DTD/svg11.dtd">
<svg version="1.1" id="Layer_2" xmlns="http://www.w3.org/2000/svg" xmlns:xlink="http://www.w3.org/1999/xlink" x="0px" y="0px"
	 viewBox="0 0 240 230" style="enable-background:new 0 0 240 230;" xml:space="preserve">
<style type="text/css">
	.st0{fill:#FFFFFF;}
</style>
<title>HR-3steps_01</title>
<g id="Middle_Person">
	<path class="st0" d="M74.1,90.7c10.5-15.6,6.3-36.7-9.3-47.2s-36.7-6.3-47.2,9.3s-6.3,36.7,9.3,47.2c10.7,7.2,24.6,7.7,35.8,1.3
		c2.9,3.6,8.9,8,12.7,9c7.5,2,22.5,1.5,22.5,1.5C85.3,106.8,77.8,97,74.1,90.7z"/>
	<path class="st0" d="M157.6,28.2c-26.5,0-48,21.5-48,48s21.5,48,48,48s48-21.5,48-48S184.1,28.2,157.6,28.2z M157.6,124
		c-19.3,0-35-15.6-35-35c0-1.7,0.1-3.4,0.4-5c3.3,0.9,6.8,1.3,10.2,1.2c21.6-0.2,36-15.9,43-26c16.5,10.1,21.6,31.7,11.4,48.2
		C181.1,117.7,169.8,124,157.6,124L157.6,124z"/>
	<path class="st0" d="M228.1,164.4c-0.1-19.8-16.2-35.9-36-35.9h-5.5c0,0.2,0,0.5,0,0.8c0,16.2-13.1,29.2-29.2,29.2
		s-29.2-13.1-29.2-29.2c0-0.2,0-0.5,0-0.8h-6.5c-19.8,0-35.9,16-36,35.9c0,1,0.1,2,0.1,2.9c-0.1,0.5-0.1,1-0.1,1.5v34c0,5,4,9,9,9
		h124.5c5,0,9-4,9-9v-34c0-0.5,0-1-0.1-1.5C228.1,166.3,228.1,165.4,228.1,164.4z"/>
</g>
</svg>
