<?xml version="1.0" encoding="utf-8"?>
<!-- Generator: Adobe Illustrator 22.0.1, SVG Export Plug-In . SVG Version: 6.00 Build 0)  -->
<!DOCTYPE svg PUBLIC "-//W3C//DTD SVG 1.1//EN" "http://www.w3.org/Graphics/SVG/1.1/DTD/svg11.dtd">
<svg version="1.1" id="Layer_1" xmlns="http://www.w3.org/2000/svg" xmlns:xlink="http://www.w3.org/1999/xlink" x="0px" y="0px"
	 viewBox="0 0 500 500" style="enable-background:new 0 0 500 500;" xml:space="preserve">
<style type="text/css">
	.st0{fill:#FFFFFF;}
</style>
<g>
	<path class="st0" d="M383.7,8.8H180.2C125,8.8,80.1,53.7,80.1,108.9v81.3c-36.5,7.8-63.9,40.3-63.9,79v66.1
		c0,17.5,5.6,34.2,16.1,48.2c8.4,11.3,20,20.3,32.9,25.9v70.9c0,4.4,2.7,8.4,6.8,10.1c1.3,0.6,2.7,0.9,4.1,0.9
		c2.9,0,5.7-1.1,7.8-3.2L156,416h100.1c44.6,0,80.7-36.3,80.7-80.7V321l65.7,65.8c2.2,2.1,5,3.2,7.8,3.2c1.3,0,2.8-0.2,3.9-0.9
		c4.1-1.7,6.8-5.7,6.8-10.1v-92.7c16.8-6.8,31.8-18.4,42.7-33c13-17.4,20-38.1,20-59.8v-84.6C483.8,53.7,438.8,8.8,383.7,8.8z
		 M256.1,394H151.5c-2.9,0-5.7,1.1-7.8,3.2l-56.6,56.6v-52c0-4.7-3.2-9-7.7-10.5c-24.4-7.7-41.3-30.8-41.3-56.1v-66.1
		c0-32.4,26.4-58.8,58.8-58.8l0,0H256c32.4,0,58.8,26.4,58.8,58.8v66.1C314.9,367.6,288.5,394,256.1,394z M462,193.4
		c0,33.7-22.5,64.4-54.9,74.6c-4.5,1.5-7.7,5.7-7.7,10.5v73.9l-62.6-62.6v-20.7c0-44.6-36.3-80.7-80.7-80.7h-154v-79.5
		c0-43.1,35.1-78.2,78.2-78.2v-0.1h203.6c43.1,0,78.2,35.1,78.2,78.2L462,193.4L462,193.4z"/>
</g>
</svg>
