<svg xmlns="http://www.w3.org/2000/svg" viewBox="0 0 68.43 61.1"><defs><style>.cls-1{fill:#fff;}</style></defs><title>Asset 5</title><g id="Layer_2" data-name="Layer 2"><g id="Layer_1-2" data-name="Layer 1"><path class="cls-1" d="M34.21,61.1A1.23,1.23,0,0,1,33,59.87c0-4-2.88-6.11-8.55-6.11H1.22A1.22,1.22,0,0,1,0,52.54V6.11A1.22,1.22,0,0,1,1.22,4.89H6.11a1.22,1.22,0,0,1,0,2.44H2.44v44h22c4.73,0,8.09,1.43,9.77,4,1.68-2.61,5-4,9.78-4H66v-44H62.32a1.22,1.22,0,1,1,0-2.44h4.89a1.22,1.22,0,0,1,1.22,1.22V52.54a1.22,1.22,0,0,1-1.22,1.22H44c-5.68,0-8.55,2.06-8.55,6.11A1.23,1.23,0,0,1,34.21,61.1Z"/><path class="cls-1" d="M34.21,61.1A1.23,1.23,0,0,1,33,59.87v-55a1.23,1.23,0,0,1,2.45,0v55A1.23,1.23,0,0,1,34.21,61.1Z"/><path class="cls-1" d="M34.21,56.21A1.22,1.22,0,0,1,33,55c0-4.06-2.88-6.11-8.55-6.11H6.11a1.22,1.22,0,0,1-1.22-1.23V1.22A1.22,1.22,0,0,1,6.11,0h22a7.34,7.34,0,0,1,6.11,3.28A7.36,7.36,0,0,1,40.32,0h22a1.22,1.22,0,0,1,1.22,1.22V47.65a1.23,1.23,0,0,1-1.22,1.23H44c-5.68,0-8.55,2-8.55,6.11A1.23,1.23,0,0,1,34.21,56.21ZM7.33,46.43H24.44c4.73,0,8.09,1.43,9.77,4,1.68-2.61,5-4,9.78-4H61.1v-44H40.32a4.9,4.9,0,0,0-4.88,4.89,1.23,1.23,0,0,1-2.45,0A4.9,4.9,0,0,0,28.1,2.44H7.33Z"/></g></g></svg>