<svg xmlns="http://www.w3.org/2000/svg" viewBox="0 0 62.08 66.5"><defs><style>.cls-1{fill:#383838;}</style></defs><title>Asset 9</title><g id="Layer_2" data-name="Layer 2"><g id="Layer_1-2" data-name="Layer 1"><path class="cls-1" d="M59.75,46.62H56.44a1.22,1.22,0,0,1-1.22-1.22v-11a1.22,1.22,0,0,1,1.22-1.22h3.31a2.33,2.33,0,0,1,2.33,2.33v8.83A2.33,2.33,0,0,1,59.75,46.62Zm-2.09-2.44h2v-8.6h-2Z"/><path class="cls-1" d="M59.75,57.66H56.44a1.22,1.22,0,0,1-1.22-1.22v-11a1.22,1.22,0,0,1,1.22-1.22h3.31a2.32,2.32,0,0,1,2.33,2.32v8.84A2.32,2.32,0,0,1,59.75,57.66Zm-2.09-2.44h2v-8.6h-2Z"/><path class="cls-1" d="M59.75,35.58H56.44a1.23,1.23,0,0,1-1.22-1.23v-11a1.22,1.22,0,0,1,1.22-1.22h3.31a2.32,2.32,0,0,1,2.33,2.32v8.84A2.33,2.33,0,0,1,59.75,35.58Zm-2.09-2.45h2v-8.6h-2Z"/><path class="cls-1" d="M59.75,24.53H56.44a1.22,1.22,0,0,1-1.22-1.22v-11A1.23,1.23,0,0,1,56.44,11h3.31a2.33,2.33,0,0,1,2.33,2.33v8.84A2.32,2.32,0,0,1,59.75,24.53Zm-2.09-2.44h2v-8.6h-2Z"/><path class="cls-1" d="M56.44,66.5H7.85a3.44,3.44,0,0,1-3.43-3.43V49.81a1.22,1.22,0,0,1,1.22-1.22H7.85a1,1,0,0,0,0-2H5.64A1.22,1.22,0,0,1,4.42,45.4V21.1a1.22,1.22,0,0,1,1.22-1.22H7.85a1,1,0,0,0,0-2H5.64a1.21,1.21,0,0,1-1.22-1.22V3.43A3.44,3.44,0,0,1,7.85,0h51.9a2.33,2.33,0,0,1,2.33,2.33v8.83a2.33,2.33,0,0,1-2.33,2.33H57.66V65.28A1.22,1.22,0,0,1,56.44,66.5ZM6.86,51v12a1,1,0,0,0,1,1H55.22V12.27A1.23,1.23,0,0,1,56.44,11h3.2V2.44H7.85a1,1,0,0,0-1,1v12h1a3.43,3.43,0,0,1,0,6.86h-1V44.18h1a3.43,3.43,0,0,1,0,6.86ZM59.75,2.44h0Z"/><path class="cls-1" d="M7.85,22.32H3.43a3.43,3.43,0,0,1,0-6.86H7.85a3.43,3.43,0,0,1,0,6.86ZM3.43,17.9a1,1,0,1,0,0,2H7.85a1,1,0,0,0,0-2Z"/><path class="cls-1" d="M7.85,51H3.43a3.43,3.43,0,0,1,0-6.86H7.85a3.43,3.43,0,0,1,0,6.86ZM3.43,46.62a1,1,0,1,0,0,2H7.85a1,1,0,0,0,0-2Z"/><path class="cls-1" d="M14.47,66.5a1.22,1.22,0,0,1-1.22-1.22V1.22a1.23,1.23,0,0,1,2.45,0V65.28A1.23,1.23,0,0,1,14.47,66.5Z"/><path class="cls-1" d="M43.09,36.69a1.23,1.23,0,0,1-.81-.3,8.46,8.46,0,0,0-4-1.62,1.82,1.82,0,0,1-1.5-1.86c0-.3,0-.62,0-.95a3.92,3.92,0,0,1,.59-1.82A3.49,3.49,0,0,0,37.83,29a1,1,0,0,1,.12-.47,3.59,3.59,0,0,0,.39-1.34,1.17,1.17,0,0,1-.21-.94c0-.23.08-.46.12-.71l.11-.61c.3-1.67-.46-2.17-1.16-2.42-.11,0-.31-.09-.56-.15a17.05,17.05,0,0,1-2.13-.64,1.33,1.33,0,0,1-.75.85,1.8,1.8,0,0,0-1.2,2.35l.11.65.12.68a1.25,1.25,0,0,1-.21.94A3.5,3.5,0,0,0,33,28.49a1.31,1.31,0,0,1,.12.47,3,3,0,0,0,.43,1.12,4.09,4.09,0,0,1,.6,1.87c0,.34,0,.66,0,1a1.81,1.81,0,0,1-1.49,1.85,8.46,8.46,0,0,0-4,1.62,1.24,1.24,0,0,1-1.73-.11A1.22,1.22,0,0,1,27,34.55a10.5,10.5,0,0,1,4.66-2.09V32a3.29,3.29,0,0,0-.33-.73,5.54,5.54,0,0,1-.68-1.88,5.57,5.57,0,0,1-.54-2.19,2.32,2.32,0,0,1,.18-.94c0-.1,0-.19,0-.28l-.11-.61a4.13,4.13,0,0,1,2.07-4.74s0-.1,0-.15c0-.65.07-1.47.9-1.8a1.38,1.38,0,0,1,1.38.3,8.58,8.58,0,0,0,2.73,1c.35.09.62.16.78.22,2.19.78,3.19,2.65,2.74,5.15l-.1.59c0,.1,0,.2,0,.3a2.5,2.5,0,0,1,.17.94,5.57,5.57,0,0,1-.54,2.19,5.72,5.72,0,0,1-.69,1.92,3.43,3.43,0,0,0-.31.7v.5a10.5,10.5,0,0,1,4.66,2.09,1.23,1.23,0,0,1,.1,1.73A1.21,1.21,0,0,1,43.09,36.69ZM32.76,20.3h0Z"/><path class="cls-1" d="M35.46,40A13.37,13.37,0,1,1,48.83,26.62,13.39,13.39,0,0,1,35.46,40Zm0-24.29A10.93,10.93,0,1,0,46.38,26.62,10.94,10.94,0,0,0,35.46,15.7Z"/><path class="cls-1" d="M41,46.62h-11a1.22,1.22,0,1,1,0-2.44H41a1.22,1.22,0,1,1,0,2.44Z"/><path class="cls-1" d="M47.61,51H23.31a1.23,1.23,0,0,1,0-2.45h24.3a1.23,1.23,0,0,1,0,2.45Z"/></g></g></svg>