<svg xmlns="http://www.w3.org/2000/svg" viewBox="0 0 62.74 56"><defs><style>.cls-1,.cls-2{fill:none;stroke:#fff;stroke-linecap:round;stroke-linejoin:round;stroke-width:2px;}.cls-1{fill-rule:evenodd;}</style></defs><title>Asset 17</title><g id="Layer_2" data-name="Layer 2"><g id="Layer_1-2" data-name="Layer 1"><path class="cls-1" d="M8.74,20.4C6.16,25.57,4.07,34,3.19,37.93a2,2,0,0,0,1.66,2.42,64.05,64.05,0,0,0,8.89.65,64.63,64.63,0,0,0,8.87-.65,2,2,0,0,0,1.66-2.44c-.9-3.86-3-12.18-5.53-17.51"/><path class="cls-1" d="M4.61,31.43l-2.22-.81A2.13,2.13,0,0,1,1,28.21c.83-4.35,3.57-15.12,10.3-15.12v-.7c-3.48,0-3.2-3-3.2-5.39a5.85,5.85,0,0,1,5.6-6,5.85,5.85,0,0,1,5.6,6c0,2.37.59,5.39-3.2,5.39v.7c6.66,0,9.54,10.69,10.45,15.17a2.13,2.13,0,0,1-1.5,2.48l-2.33.64"/><line class="cls-2" x1="13.74" y1="41" x2="13.74" y2="55"/><path class="cls-1" d="M8.24,41a85.06,85.06,0,0,0,.5,11.08,3.16,3.16,0,0,0,3,2.92h4a3.14,3.14,0,0,0,3-2.92A100.89,100.89,0,0,0,19.24,41"/><circle class="cls-2" cx="34.74" cy="19" r="1"/><circle class="cls-2" cx="42.74" cy="27" r="1"/><circle class="cls-2" cx="52.74" cy="17" r="1"/><line class="cls-2" x1="37.74" y1="22" x2="39.74" y2="24"/><line class="cls-2" x1="45.74" y1="24" x2="49.74" y2="20"/><polyline class="cls-2" points="27.74 40 61.74 40 61.74 6 25.74 6"/><polyline class="cls-2" points="29.74 36 57.74 36 57.74 10 25.74 10"/></g></g></svg>