<svg xmlns="http://www.w3.org/2000/svg" viewBox="0 0 77.06 68.81"><defs><style>.cls-1{fill:#fff;}</style></defs><title>Asset 4</title><g id="Layer_2" data-name="Layer 2"><g id="Layer_1-2" data-name="Layer 1"><path class="cls-1" d="M35.87,58.41h-32A3.89,3.89,0,0,1,0,54.52V3.89A3.89,3.89,0,0,1,3.89,0H70.51a3.89,3.89,0,0,1,3.88,3.89v28a1.22,1.22,0,1,1-2.44,0v-28a1.45,1.45,0,0,0-1.44-1.45H3.89A1.45,1.45,0,0,0,2.44,3.89V54.52A1.45,1.45,0,0,0,3.89,56h32a1.23,1.23,0,0,1,0,2.45Z"/><path class="cls-1" d="M35.87,53.08H6.55a1.23,1.23,0,0,1-1.22-1.23V6.55A1.22,1.22,0,0,1,6.55,5.33H67.84a1.23,1.23,0,0,1,1.23,1.22V31.87a1.23,1.23,0,0,1-2.45,0V7.77H7.77V50.63h28.1a1.23,1.23,0,0,1,0,2.45Z"/><path class="cls-1" d="M35.87,53.08H6.55a1.23,1.23,0,0,1-.93-2l16-18.66a1.23,1.23,0,0,1,.88-.42,1.19,1.19,0,0,1,.92.35L33.07,42,48.21,21.81a1.22,1.22,0,0,1,1-.49,1.24,1.24,0,0,1,1,.61l4.6,8a1.2,1.2,0,0,1-.45,1.66,1.22,1.22,0,0,1-1.67-.45l-3.68-6.38L34.18,44.59a1.22,1.22,0,0,1-.89.49,1.25,1.25,0,0,1-.95-.36L22.61,35,9.21,50.63H35.87a1.23,1.23,0,0,1,0,2.45Z"/><path class="cls-1" d="M19.88,26.43a6.56,6.56,0,1,1,6.55-6.55A6.56,6.56,0,0,1,19.88,26.43Zm0-10.66A4.11,4.11,0,1,0,24,19.88,4.11,4.11,0,0,0,19.88,15.77Z"/><path class="cls-1" d="M68.75,68.81a2.78,2.78,0,0,1-1.6-.5l-7.3-5-7.3,5a2.81,2.81,0,0,1-4.28-3.16l2.63-8.37L43.74,51.3a2.81,2.81,0,0,1,1.71-5h8.87l2.86-8.54a2.82,2.82,0,0,1,5.34,0h0l2.86,8.54h8.86a2.81,2.81,0,0,1,1.71,5L68.8,56.78l2.63,8.37a2.8,2.8,0,0,1-1,3.11A2.83,2.83,0,0,1,68.75,68.81Zm-8.9-8.23a1.24,1.24,0,0,1,.69.21l8,5.51a.34.34,0,0,0,.42,0,.35.35,0,0,0,.14-.41L66.21,56.7a1.23,1.23,0,0,1,.43-1.34l7.83-6a.34.34,0,0,0,.12-.41.35.35,0,0,0-.35-.25H64.5a1.23,1.23,0,0,1-1.16-.83L60.2,38.49a.37.37,0,0,0-.7,0l-3.15,9.38a1.2,1.2,0,0,1-1.15.83H45.45a.37.37,0,0,0-.22.66l7.83,6a1.23,1.23,0,0,1,.43,1.34L50.6,65.88a.36.36,0,0,0,.13.41.35.35,0,0,0,.43,0l8-5.51A1.22,1.22,0,0,1,59.85,60.58Z"/></g></g></svg>