<svg xmlns="http://www.w3.org/2000/svg" viewBox="0 0 49.03 68.64"><defs><style>.cls-1{fill:none;}</style></defs><title>Asset 14</title><g id="Layer_2" data-name="Layer 2"><g id="Layer_1-2" data-name="Layer 1"><path class="cls-1" d="M36,6.54h9.81A3.27,3.27,0,0,1,49,9.81V65.37a3.28,3.28,0,0,1-3.27,3.27H3.27A3.27,3.27,0,0,1,0,65.37V9.81A3.26,3.26,0,0,1,3.27,6.54h9.8"/><path class="cls-1" d="M31.05,3.27h0A3.26,3.26,0,0,0,27.78,0H21.24A3.26,3.26,0,0,0,18,3.27H14.71A1.64,1.64,0,0,0,13.07,4.9V8.17a1.65,1.65,0,0,0,1.64,1.64H34.32A1.64,1.64,0,0,0,36,8.17V4.9a1.63,1.63,0,0,0-1.63-1.63Z"/><line class="cls-1" x1="17.98" y1="24.51" x2="44.12" y2="24.51"/><rect class="cls-1" x="6.54" y="21.24" width="6.54" height="6.54"/><line class="cls-1" x1="17.98" y1="37.59" x2="44.12" y2="37.59"/><rect class="cls-1" x="6.54" y="34.32" width="6.54" height="6.54"/><line class="cls-1" x1="17.98" y1="50.66" x2="44.12" y2="50.66"/><rect class="cls-1" x="6.54" y="47.39" width="6.54" height="6.54"/></g></g></svg>