<svg xmlns="http://www.w3.org/2000/svg" viewBox="0 0 51.13 70.74"><defs><style>.cls-1{fill:none;stroke:#000;stroke-miterlimit:10;stroke-width:2.1px;}</style></defs><title>Asset 12</title><g id="Layer_2" data-name="Layer 2"><g id="Layer_1-2" data-name="Layer 1"><path class="cls-1" d="M37,7.59h9.81a3.27,3.27,0,0,1,3.27,3.27V66.42a3.28,3.28,0,0,1-3.27,3.27H4.32a3.27,3.27,0,0,1-3.27-3.27V10.86A3.26,3.26,0,0,1,4.32,7.59h9.8"/><path class="cls-1" d="M32.1,4.32h0a3.26,3.26,0,0,0-3.27-3.27H22.29A3.26,3.26,0,0,0,19,4.32H15.76A1.64,1.64,0,0,0,14.12,6V9.22a1.65,1.65,0,0,0,1.64,1.64H35.37A1.64,1.64,0,0,0,37,9.22V6a1.63,1.63,0,0,0-1.63-1.63Z"/><line class="cls-1" x1="19.03" y1="25.56" x2="45.17" y2="25.56"/><rect class="cls-1" x="7.59" y="22.29" width="6.54" height="6.54"/><line class="cls-1" x1="19.03" y1="38.64" x2="45.17" y2="38.64"/><rect class="cls-1" x="7.59" y="35.37" width="6.54" height="6.54"/><line class="cls-1" x1="19.03" y1="51.71" x2="45.17" y2="51.71"/><rect class="cls-1" x="7.59" y="48.44" width="6.54" height="6.54"/></g></g></svg>