<svg xmlns="http://www.w3.org/2000/svg" viewBox="0 0 94.64 58"><defs><style>.cls-1,.cls-2{fill:none;stroke:#fff;stroke-linecap:round;stroke-linejoin:round;stroke-width:2px;}.cls-1{fill-rule:evenodd;}</style></defs><title>Asset 15</title><g id="Layer_2" data-name="Layer 2"><g id="Layer_1-2" data-name="Layer 1"><path class="cls-1" d="M39.82,21.7c-1.08,19.75.92,32.38.92,32.38a3,3,0,0,0,3,2.92h6a3,3,0,0,0,3-2.92s2-13,.92-32.38"/><path class="cls-1" d="M54.18,34h.67c4.72,0,5-7.33,4.54-13.75-.25-3.77-3.06-6.65-10.25-7.16v-.7A6.06,6.06,0,0,0,52.24,7a5.77,5.77,0,0,0-5.5-6,5.77,5.77,0,0,0-5.5,6,6.06,6.06,0,0,0,3.1,5.39v.7c-7.11.53-10,3.47-10.26,7.16-.42,5.92,0,13.75,4.55,13.75h.77"/><line class="cls-2" x1="46.74" y1="34" x2="46.74" y2="57"/><path class="cls-1" d="M75.74,22.4C73.16,27.57,71.07,36,70.19,39.93a2,2,0,0,0,1.66,2.42,64.05,64.05,0,0,0,8.89.65,64.63,64.63,0,0,0,8.87-.65,2,2,0,0,0,1.66-2.44c-.9-3.86-3-12.18-5.53-17.51"/><path class="cls-1" d="M71.61,33.43l-2.22-.81A2.13,2.13,0,0,1,68,30.21c.83-4.35,3.57-15.12,10.3-15.12v-.7c-3.48,0-3.2-3-3.2-5.39a5.61,5.61,0,1,1,11.2,0c0,2.37.59,5.39-3.2,5.39v.7c6.66,0,9.54,10.69,10.45,15.17a2.13,2.13,0,0,1-1.5,2.48l-2.33.64"/><line class="cls-2" x1="80.74" y1="43" x2="80.74" y2="57"/><path class="cls-1" d="M75.24,43a85.06,85.06,0,0,0,.5,11.08,3.16,3.16,0,0,0,3,2.92h4a3.14,3.14,0,0,0,3-2.92A100.89,100.89,0,0,0,86.24,43"/><path class="cls-1" d="M8.74,22.4C6.16,27.57,4.07,36,3.19,39.93a2,2,0,0,0,1.66,2.42,64.05,64.05,0,0,0,8.89.65,64.63,64.63,0,0,0,8.87-.65,2,2,0,0,0,1.66-2.44c-.9-3.86-3-12.18-5.53-17.51"/><path class="cls-1" d="M4.61,33.43l-2.22-.81A2.13,2.13,0,0,1,1,30.21c.83-4.35,3.57-15.12,10.3-15.12v-.7c-3.48,0-3.2-3-3.2-5.39a5.85,5.85,0,0,1,5.6-6,5.85,5.85,0,0,1,5.6,6c0,2.37.59,5.39-3.2,5.39v.7c6.66,0,9.54,10.69,10.45,15.17a2.13,2.13,0,0,1-1.5,2.48l-2.33.64"/><line class="cls-2" x1="13.74" y1="43" x2="13.74" y2="57"/><path class="cls-1" d="M8.24,43a85.06,85.06,0,0,0,.5,11.08,3.16,3.16,0,0,0,3,2.92h4a3.14,3.14,0,0,0,3-2.92A100.89,100.89,0,0,0,19.24,43"/></g></g></svg>