<svg xmlns="http://www.w3.org/2000/svg" viewBox="0 0 54.48 54.41"><defs><style>.cls-1{fill:#383838;}</style></defs><title>Asset 2</title><g id="Layer_2" data-name="Layer 2"><g id="Layer_1-2" data-name="Layer 1"><path class="cls-1" d="M39.89,54.41c-5.15,0-13.31-4-24.54-15.23C-4,19.86-.5,12.23,1.88,9.85L6.15,5.58A5.22,5.22,0,0,1,14,6.07l5.2,6.68a5.23,5.23,0,0,1,0,6.45L18,20.69a2.78,2.78,0,0,0,.22,3.69l12,12a2.78,2.78,0,0,0,3.7.21l1.48-1.17a5.23,5.23,0,0,1,6.46,0l6.68,5.2A5.22,5.22,0,0,1,49,48.38l-4.27,4.27h0A6.55,6.55,0,0,1,39.89,54.41ZM9.84,6.5a2.78,2.78,0,0,0-2,.81L3.61,11.58c-2.86,2.86-1,11.35,13.47,25.87C36.53,56.89,42.7,51.17,43,50.92l4.27-4.27A2.78,2.78,0,0,0,47,42.49l-6.68-5.2a2.78,2.78,0,0,0-3.44,0l-1.49,1.17a5.22,5.22,0,0,1-6.93-.4l-12-12a5.23,5.23,0,0,1-.4-6.94l1.17-1.48a2.78,2.78,0,0,0,0-3.44L12,7.57A2.79,2.79,0,0,0,10,6.5Zm34,45.29h0Z"/><path class="cls-1" d="M53.25,27.44A1.22,1.22,0,0,1,52,26.22,23.8,23.8,0,0,0,28.25,2.44a1.22,1.22,0,1,1,0-2.44A26.26,26.26,0,0,1,54.48,26.22,1.22,1.22,0,0,1,53.25,27.44Z"/><path class="cls-1" d="M47.25,27.44A1.22,1.22,0,0,1,46,26.22,17.8,17.8,0,0,0,28.25,8.44a1.22,1.22,0,1,1,0-2.44A20.24,20.24,0,0,1,48.48,26.22,1.22,1.22,0,0,1,47.25,27.44Z"/><path class="cls-1" d="M41.25,27.44A1.22,1.22,0,0,1,40,26.22,11.79,11.79,0,0,0,28.25,14.44a1.22,1.22,0,0,1,0-2.44A14.24,14.24,0,0,1,42.48,26.22,1.22,1.22,0,0,1,41.25,27.44Z"/><path class="cls-1" d="M35.25,27.44A1.22,1.22,0,0,1,34,26.22a5.79,5.79,0,0,0-5.78-5.78,1.22,1.22,0,1,1,0-2.44,8.23,8.23,0,0,1,8.23,8.22A1.22,1.22,0,0,1,35.25,27.44Z"/></g></g></svg>