<svg xmlns="http://www.w3.org/2000/svg" viewBox="0 0 40 55"><defs><style>.cls-1{fill:none;stroke:#231f20;stroke-linecap:round;stroke-linejoin:round;stroke-width:2px;}.cls-2{fill:#231f20;}</style></defs><title>Asset 16</title><g id="Layer_2" data-name="Layer 2"><g id="Layer_1-2" data-name="Layer 1"><circle class="cls-1" cx="20" cy="37" r="5"/><rect class="cls-1" x="1" y="24" width="38" height="4"/><polygon class="cls-1" points="33 28 31 54 9 54 7 28 33 28"/><path class="cls-2" d="M25.9,20a1,1,0,0,0-1.8.86c.32.68.63,1.41.94,2.17h2.14C26.77,21.93,26.35,20.91,25.9,20Z"/><path class="cls-2" d="M15.45,19.51a1,1,0,0,0-1.34.44c-.47.93-.91,2-1.34,3.05h2.15c.32-.76.64-1.49,1-2.15A1,1,0,0,0,15.45,19.51Z"/><path class="cls-2" d="M7.58,23H9.69c1.42-4.19,3.9-8.91,7.91-8.91a1,1,0,0,0,1-1v-.7a1,1,0,0,0-1-1A2.18,2.18,0,0,1,16,10.91c-.64-.65-.63-2.12-.62-3.41V7A4.88,4.88,0,0,1,20,2a4.88,4.88,0,0,1,4.6,5c0,.29,0,.58,0,.88,0,1.2.07,2.44-.49,3a2.39,2.39,0,0,1-1.73.49,1,1,0,0,0-1,1v.7a1,1,0,0,0,1,1c4,0,6.51,4.71,8,8.91H32.5c-1.36-4.12-3.66-8.77-7.35-10.35a3.52,3.52,0,0,0,.41-.36c1.15-1.18,1.1-2.92,1.06-4.46,0-.28,0-.56,0-.83A6.82,6.82,0,0,0,20,0a6.82,6.82,0,0,0-6.6,7v.48c0,1.69,0,3.6,1.2,4.84a3.07,3.07,0,0,0,.34.29C11.18,14.16,8.9,18.85,7.58,23Z"/></g></g></svg>