<svg xmlns="http://www.w3.org/2000/svg" viewBox="0 0 56.44 52.45"><defs><style>.cls-1{fill:#383838;}</style></defs><title>Asset 1</title><g id="Layer_2" data-name="Layer 2"><g id="Layer_1-2" data-name="Layer 1"><path class="cls-1" d="M23.21,52.45a1.24,1.24,0,0,1-1.16-.83L16.53,35.34a1.22,1.22,0,1,1,2.31-.78l5.52,16.27a1.22,1.22,0,0,1-.76,1.55A1.34,1.34,0,0,1,23.21,52.45Z"/><path class="cls-1" d="M17.69,36.17A1.22,1.22,0,0,1,16.87,34L54.41.31a1.21,1.21,0,0,1,1.72.1A1.22,1.22,0,0,1,56,2.13L18.5,35.86A1.19,1.19,0,0,1,17.69,36.17Z"/><path class="cls-1" d="M25.66,38.63a1.22,1.22,0,0,1-.95-2L54.28.45A1.21,1.21,0,0,1,56,.28,1.22,1.22,0,0,1,56.17,2L26.61,38.18A1.23,1.23,0,0,1,25.66,38.63Z"/><path class="cls-1" d="M23.22,52.44a1.22,1.22,0,0,1-.89-2.06l10.32-11a1.22,1.22,0,0,1,1.78,1.67l-10.32,11A1.19,1.19,0,0,1,23.22,52.44Z"/><path class="cls-1" d="M23.22,52.44H23A1.22,1.22,0,0,1,22,51L24.46,37.2a1.22,1.22,0,0,1,2.4.42L24.43,51.43A1.23,1.23,0,0,1,23.22,52.44Z"/><path class="cls-1" d="M47.22,46.44a1.14,1.14,0,0,1-.41-.07L25.24,38.56a1.22,1.22,0,1,1,.84-2.3l20.2,7.32L53.57,3.45,4.3,29l13.79,4.8a1.22,1.22,0,0,1-.8,2.3L.82,30.38a1.22,1.22,0,0,1-.16-2.24l54-28a1.22,1.22,0,0,1,1.76,1.3l-8,44a1.21,1.21,0,0,1-1.2,1Z"/></g></g></svg>