<?xml version="1.0" encoding="utf-8"?>
<!-- Generator: Adobe Illustrator 22.0.1, SVG Export Plug-In . SVG Version: 6.00 Build 0)  -->
<!DOCTYPE svg PUBLIC "-//W3C//DTD SVG 1.1//EN" "http://www.w3.org/Graphics/SVG/1.1/DTD/svg11.dtd">
<svg version="1.1" id="Layer_1" xmlns="http://www.w3.org/2000/svg" xmlns:xlink="http://www.w3.org/1999/xlink" x="0px" y="0px"
	 viewBox="0 0 500 500" style="enable-background:new 0 0 500 500;" xml:space="preserve">
<style type="text/css">
	.st0{fill:#00B2BF;}
</style>
<g>
	<polygon class="st0" points="353.9,95.6 408.4,95.6 353.9,41 	"/>
	<path class="st0" d="M440.5,104.1c0-0.1,0-0.2,0-0.4c0-0.2,0-0.3-0.1-0.5c-0.4-2.4-1.8-4.4-3.6-5.8l-84.7-84.7
		c-1.7-2.3-4.4-3.8-7.5-3.8H68.8c-5.2,0-9.4,4.2-9.4,9.4v463.4c0,5.2,4.2,9.4,9.4,9.4h362.4c5.2,0,9.4-4.2,9.4-9.4V106
		C440.6,105.3,440.6,104.7,440.5,104.1z M353.9,95.6V41l54.5,54.5L353.9,95.6L353.9,95.6z M78.2,472.3V27.7h257v77.2v0.1
		c0,5.2,4.2,9.4,9.4,9.4h77.2v357.9H78.2z"/>
	<path class="st0" d="M372.9,161H127.2c-5.2,0-9.4,4.2-9.4,9.4s4.2,9.4,9.4,9.4h245.6c5.2,0,9.5-4.2,9.5-9.4S378.1,161,372.9,161z"
		/>
	<path class="st0" d="M372.9,225H127.2c-5.2,0-9.4,4.2-9.4,9.4s4.2,9.4,9.4,9.4h245.6c5.2,0,9.5-4.2,9.5-9.4S378.1,225,372.9,225z"
		/>
	<path class="st0" d="M372.9,289H127.2c-5.2,0-9.4,4.2-9.4,9.4c0,5.2,4.2,9.4,9.4,9.4h245.6c5.2,0,9.5-4.2,9.5-9.4
		S378.1,289,372.9,289z"/>
	<path class="st0" d="M372.9,353H127.2c-5.2,0-9.4,4.2-9.4,9.4c0,5.2,4.2,9.4,9.4,9.4h245.6c5.2,0,9.5-4.2,9.5-9.4
		S378.1,353,372.9,353z"/>
	<path class="st0" d="M127.2,114.4h82.7c5.2,0,9.4-4.2,9.4-9.4c0-5.2-4.2-9.4-9.4-9.4h-82.7c-5.2,0-9.4,4.2-9.4,9.4
		C117.8,110.3,122,114.4,127.2,114.4z"/>
</g>
</svg>
